<?xml version="1.0" encoding="UTF-8" standalone="no"?>
<!-- Generator: Adobe Illustrator 16.0.4, SVG Export Plug-In . SVG Version: 6.00 Build 0)  -->

<svg
   xmlns:dc="http://purl.org/dc/elements/1.1/"
   xmlns:cc="http://creativecommons.org/ns#"
   xmlns:rdf="http://www.w3.org/1999/02/22-rdf-syntax-ns#"
   xmlns:svg="http://www.w3.org/2000/svg"
   xmlns="http://www.w3.org/2000/svg"
   xmlns:sodipodi="http://sodipodi.sourceforge.net/DTD/sodipodi-0.dtd"
   xmlns:inkscape="http://www.inkscape.org/namespaces/inkscape"
   version="1.1"
   id="Capa_1"
   x="0px"
   y="0px"
   width="24"
   height="24"
   viewBox="0 0 24 24"
   xml:space="preserve"
   inkscape:version="0.48.4 r9939"
   sodipodi:docname="03-Water.svg"><metadata
   id="metadata39"><rdf:RDF><cc:Work
       rdf:about=""><dc:format>image/svg+xml</dc:format><dc:type
         rdf:resource="http://purl.org/dc/dcmitype/StillImage" /></cc:Work></rdf:RDF></metadata><defs
   id="defs37" /><sodipodi:namedview
   pagecolor="#ffffff"
   bordercolor="#666666"
   borderopacity="1"
   objecttolerance="10"
   gridtolerance="10"
   guidetolerance="10"
   inkscape:pageopacity="0"
   inkscape:pageshadow="2"
   inkscape:window-width="1680"
   inkscape:window-height="987"
   id="namedview35"
   showgrid="false"
   inkscape:zoom="15.733333"
   inkscape:cx="-0.45283906"
   inkscape:cy="7.5"
   inkscape:window-x="1272"
   inkscape:window-y="-8"
   inkscape:window-maximized="1"
   inkscape:current-layer="Capa_1" />
<path
   style="fill:#010002"
   d="m 16.983497,13.848875 c 0.28,0.56 1.541,3.5 1.541,3.921 0,2.307 -3.081,2.307 -3.081,0 0,-0.421 1.261,-3.501 1.54,-3.921 z m 1.82,-1.565 c 0,-0.318 0,-0.848 0,-1.779 0,-1.127 -1.023,-2.101 -2.38,-2.101 0,0 -0.008,0 -3.169,0 l -0.017,-0.988 c 0,-0.284 -0.231,-0.516 -0.517,-0.516 h -1.239 v -0.635 c 0.107,-0.064 0.196,-0.143 0.272,-0.241 0.372,0 1.125,0 2.639,0 0.176,0.226 0.437,0.384 0.745,0.384 0.525,0 0.953,-0.426 0.953,-0.953 0,-0.528 -0.427,-0.955 -0.953,-0.955 -0.315,0 -0.583,0.167 -0.756,0.404 -0.417,0 -1.197,0 -2.616,0 -0.176,-0.237 -0.441,-0.404 -0.758,-0.404 -0.314,0 -0.583,0.167 -0.755,0.404 -0.8099996,0 -1.7699996,0 -2.8889996,0 -0.173,-0.237 -0.44,-0.404 -0.754,-0.404 -0.527,0 -0.954,0.427 -0.954,0.955 0,0.527 0.427,0.953 0.954,0.953 0.307,0 0.568,-0.157 0.741,-0.384 0.478,0 1.348,0 2.9129996,0 0.076,0.1 0.167,0.181 0.276,0.242 v 0.634 H 9.2244974 c -0.284,0 -0.516,0.232 -0.516,0.516 v 0.989 c -0.323,0 -1.249,0 -3.851,0 v 3.081 c 0.091,0 0.715,0 4.283,0 0.42,0.842 0.9789996,1.259 1.8199996,1.259 0.84,0 1.54,-0.417 1.96,-1.259 0,0 0,0 1.541,0 0.46,0 0.63,0.296 0.679,0.863 -0.135,0.092 -0.228,0.241 -0.228,0.417 0,0.285 0.231,0.516 0.516,0.516 h 3.197 c 0.285,0 0.517,-0.231 0.517,-0.516 0.001,-0.224 -0.14,-0.41 -0.339,-0.482 z"
   id="path3"
   inkscape:connector-curvature="0" />
<g
   id="g5"
   transform="translate(0,9)">
</g>
<g
   id="g7"
   transform="translate(0,9)">
</g>
<g
   id="g9"
   transform="translate(0,9)">
</g>
<g
   id="g11"
   transform="translate(0,9)">
</g>
<g
   id="g13"
   transform="translate(0,9)">
</g>
<g
   id="g15"
   transform="translate(0,9)">
</g>
<g
   id="g17"
   transform="translate(0,9)">
</g>
<g
   id="g19"
   transform="translate(0,9)">
</g>
<g
   id="g21"
   transform="translate(0,9)">
</g>
<g
   id="g23"
   transform="translate(0,9)">
</g>
<g
   id="g25"
   transform="translate(0,9)">
</g>
<g
   id="g27"
   transform="translate(0,9)">
</g>
<g
   id="g29"
   transform="translate(0,9)">
</g>
<g
   id="g31"
   transform="translate(0,9)">
</g>
<g
   id="g33"
   transform="translate(0,9)">
</g>
</svg>