<?xml version="1.0" encoding="UTF-8" standalone="no"?>
<!-- Generator: Adobe Illustrator 17.0.2, SVG Export Plug-In . SVG Version: 6.00 Build 0)  -->

<svg
   xmlns:dc="http://purl.org/dc/elements/1.1/"
   xmlns:cc="http://creativecommons.org/ns#"
   xmlns:rdf="http://www.w3.org/1999/02/22-rdf-syntax-ns#"
   xmlns:svg="http://www.w3.org/2000/svg"
   xmlns="http://www.w3.org/2000/svg"
   xmlns:sodipodi="http://sodipodi.sourceforge.net/DTD/sodipodi-0.dtd"
   xmlns:inkscape="http://www.inkscape.org/namespaces/inkscape"
   version="1.1"
   id="Capa_1"
   x="0px"
   y="0px"
   width="24"
   height="24"
   viewBox="0 0 24 24"
   xml:space="preserve"
   inkscape:version="0.48.4 r9939"
   sodipodi:docname="04-Food.svg"><metadata
   id="metadata17"><rdf:RDF><cc:Work
       rdf:about=""><dc:format>image/svg+xml</dc:format><dc:type
         rdf:resource="http://purl.org/dc/dcmitype/StillImage" /></cc:Work></rdf:RDF></metadata><defs
   id="defs15" /><sodipodi:namedview
   pagecolor="#ffffff"
   bordercolor="#666666"
   borderopacity="1"
   objecttolerance="10"
   gridtolerance="10"
   guidetolerance="10"
   inkscape:pageopacity="0"
   inkscape:pageshadow="2"
   inkscape:window-width="1680"
   inkscape:window-height="987"
   id="namedview13"
   showgrid="false"
   inkscape:zoom="14.75"
   inkscape:cx="26.12715"
   inkscape:cy="28.492362"
   inkscape:window-x="2952"
   inkscape:window-y="-8"
   inkscape:window-maximized="1"
   inkscape:current-layer="Capa_1" />
<g
   id="g3"
   transform="matrix(0.30945381,0,0,0.35780736,2.2882564,-0.41949347)">
	<path
   d="m 33.804,48.495 c 7.451,0 13.513,-6.06 13.513,-13.512 0,-7.451 -6.062,-13.514 -13.513,-13.514 -7.451,0 -13.513,6.062 -13.513,13.514 0,7.452 6.061,13.512 13.513,13.512 z"
   id="path5"
   inkscape:connector-curvature="0" />
	<path
   d="m 33.804,52.122 c 9.466,0 17.139,-7.674 17.139,-17.139 0,-9.467 -7.673,-17.139 -17.139,-17.139 -9.466,0 -17.139,7.672 -17.139,17.139 0,9.465 7.673,17.139 17.139,17.139 z m 0,-31.652 c 8.002,0 14.513,6.512 14.513,14.514 0,8.002 -6.511,14.512 -14.513,14.512 -8.002,0 -14.513,-6.51 -14.513,-14.512 0,-8.002 6.511,-14.514 14.513,-14.514 z"
   id="path7"
   inkscape:connector-curvature="0" />
	<path
   d="m 60.467,53.717 -1,-38.468 c 0,-0.828 -0.672,-1.5 -1.5,-1.5 -0.222,0 -0.43,0.051 -0.619,0.138 v -0.014 c 0,0 -0.039,0.025 -0.094,0.063 -0.143,0.079 -0.273,0.177 -0.384,0.296 -1.097,0.901 -4.598,4.573 -4.89,9.537 -0.445,7.572 3.233,10.638 4.486,13.447 l -1,16.5 c 0,0.828 1.672,1.5 2.5,1.5 0.829,10e-4 2.501,-0.671 2.501,-1.499 z"
   id="path9"
   inkscape:connector-curvature="0" />
	<path
   d="m 4.918,30.282 2.589,1.293 c 0.295,0.148 0.62,0.256 0.96,0.336 l -1,22.502 c 0,0.695 1.672,1.258 2.5,1.258 0.828,0 2.5,-0.562 2.5,-1.258 l -1,-22.617 c 0.352,-0.111 0.691,-0.246 0.988,-0.428 L 14.373,30.2 C 15.757,29.356 16.8,27.499 16.8,25.878 V 15.796 c 0,-0.828 -0.672,-1.5 -1.5,-1.5 -0.828,0 -1.5,0.672 -1.5,1.5 v 9.082 h -0.833 v -9.082 c 0,-0.828 -0.672,-1.5 -1.5,-1.5 -0.828,0 -1.5,0.672 -1.5,1.5 v 9.082 H 9.131 v -9.082 c 0,-0.828 -0.672,-1.5 -1.5,-1.5 -0.828,0 -1.5,0.672 -1.5,1.5 v 9.082 H 5.3 V 16.12 c 0,-0.828 -0.672,-1.5 -1.5,-1.5 -0.828,0 -1.5,0.672 -1.5,1.5 v 9.926 c 0,1.668 1.126,3.49 2.618,4.236 z"
   id="path11"
   inkscape:connector-curvature="0" />
</g>
</svg>