<?xml version="1.0" encoding="UTF-8" standalone="no"?>
<!-- Generator: Adobe Illustrator 16.0.0, SVG Export Plug-In . SVG Version: 6.00 Build 0)  -->

<svg
   xmlns:dc="http://purl.org/dc/elements/1.1/"
   xmlns:cc="http://creativecommons.org/ns#"
   xmlns:rdf="http://www.w3.org/1999/02/22-rdf-syntax-ns#"
   xmlns:svg="http://www.w3.org/2000/svg"
   xmlns="http://www.w3.org/2000/svg"
   xmlns:sodipodi="http://sodipodi.sourceforge.net/DTD/sodipodi-0.dtd"
   xmlns:inkscape="http://www.inkscape.org/namespaces/inkscape"
   version="1.1"
   id="Capa_1"
   x="0px"
   y="0px"
   width="24"
   height="24"
   viewBox="0 0 24 24.000001"
   xml:space="preserve"
   inkscape:version="0.48.4 r9939"
   sodipodi:docname="05-Danger.svg"><metadata
   id="metadata39"><rdf:RDF><cc:Work
       rdf:about=""><dc:format>image/svg+xml</dc:format><dc:type
         rdf:resource="http://purl.org/dc/dcmitype/StillImage" /></cc:Work></rdf:RDF></metadata><defs
   id="defs37" /><sodipodi:namedview
   pagecolor="#ffffff"
   bordercolor="#666666"
   borderopacity="1"
   objecttolerance="10"
   gridtolerance="10"
   guidetolerance="10"
   inkscape:pageopacity="0"
   inkscape:pageshadow="2"
   inkscape:window-width="1680"
   inkscape:window-height="987"
   id="namedview35"
   showgrid="false"
   inkscape:zoom="26.695014"
   inkscape:cx="18.377502"
   inkscape:cy="11.642733"
   inkscape:window-x="1272"
   inkscape:window-y="-8"
   inkscape:window-maximized="1"
   inkscape:current-layer="Capa_1" />
<path
   style="fill:#000000"
   d="M 20.951466,18.991902 12.303798,4.6673667 c -0.06283,-0.1037793 -0.178527,-0.1673665 -0.30418,-0.1673665 -0.123165,0 -0.238243,0.063588 -0.299203,0.1673665 L 3.0490144,18.991902 c -0.063449,0.10498 -0.065937,0.233354 -0.00373,0.338933 0.064068,0.104379 0.1785246,0.169166 0.3035556,0.169166 h 17.301556 c 0.125031,0 0.241976,-0.06478 0.303558,-0.169166 0.02924,-0.05279 0.04603,-0.111578 0.04603,-0.168566 6.22e-4,-0.05939 -0.01617,-0.118177 -0.04852,-0.170367 z M 13.182125,9.5839838 12.894741,15.278645 H 11.408676 L 11.121913,9.5839838 h 2.060212 z m -1.03135,8.6100782 h -0.02613 c -0.677407,0 -1.146428,-0.490102 -1.146428,-1.143971 0,-0.678464 0.481462,-1.143972 1.172554,-1.143972 0.691092,0 1.148295,0.464908 1.161358,1.143972 6.22e-4,0.653869 -0.456581,1.143971 -1.161358,1.143971 z"
   id="path3"
   inkscape:connector-curvature="0" />
<g
   id="g5"
   transform="translate(0,-1.0049992)">
</g>
<g
   id="g7"
   transform="translate(0,-1.0049992)">
</g>
<g
   id="g9"
   transform="translate(0,-1.0049992)">
</g>
<g
   id="g11"
   transform="translate(0,-1.0049992)">
</g>
<g
   id="g13"
   transform="translate(0,-1.0049992)">
</g>
<g
   id="g15"
   transform="translate(0,-1.0049992)">
</g>
<g
   id="g17"
   transform="translate(0,-1.0049992)">
</g>
<g
   id="g19"
   transform="translate(0,-1.0049992)">
</g>
<g
   id="g21"
   transform="translate(0,-1.0049992)">
</g>
<g
   id="g23"
   transform="translate(0,-1.0049992)">
</g>
<g
   id="g25"
   transform="translate(0,-1.0049992)">
</g>
<g
   id="g27"
   transform="translate(0,-1.0049992)">
</g>
<g
   id="g29"
   transform="translate(0,-1.0049992)">
</g>
<g
   id="g31"
   transform="translate(0,-1.0049992)">
</g>
<g
   id="g33"
   transform="translate(0,-1.0049992)">
</g>
</svg>