<?xml version="1.0" encoding="UTF-8" standalone="no"?>
<!-- Created with Inkscape (http://www.inkscape.org/) -->

<svg
   xmlns:dc="http://purl.org/dc/elements/1.1/"
   xmlns:cc="http://creativecommons.org/ns#"
   xmlns:rdf="http://www.w3.org/1999/02/22-rdf-syntax-ns#"
   xmlns:svg="http://www.w3.org/2000/svg"
   xmlns="http://www.w3.org/2000/svg"
   xmlns:sodipodi="http://sodipodi.sourceforge.net/DTD/sodipodi-0.dtd"
   xmlns:inkscape="http://www.inkscape.org/namespaces/inkscape"
   width="24"
   height="24"
   id="svg2"
   sodipodi:version="0.32"
   inkscape:version="0.48.4 r9939"
   version="1.0"
   sodipodi:docname="15-Sprint.svg">
  <defs
     id="defs4" />
  <sodipodi:namedview
     id="base"
     pagecolor="#ffffff"
     bordercolor="#666666"
     borderopacity="1.0"
     gridtolerance="10000"
     guidetolerance="10"
     objecttolerance="10"
     inkscape:pageopacity="0.0"
     inkscape:pageshadow="2"
     inkscape:zoom="15.839192"
     inkscape:cx="5.2921361"
     inkscape:cy="8.4830995"
     inkscape:document-units="px"
     inkscape:current-layer="layer1"
     inkscape:window-width="1680"
     inkscape:window-height="987"
     inkscape:window-x="2952"
     inkscape:window-y="-8"
     showgrid="false"
     inkscape:window-maximized="1" />
  <metadata
     id="metadata7">
    <rdf:RDF>
      <cc:Work
         rdf:about="">
        <dc:format>image/svg+xml</dc:format>
        <dc:type
           rdf:resource="http://purl.org/dc/dcmitype/StillImage" />
      </cc:Work>
    </rdf:RDF>
  </metadata>
  <g
     inkscape:label="Layer 1"
     inkscape:groupmode="layer"
     id="layer1"
     transform="translate(0,-1028.3622)">
    <path
       style="fill:#000000"
       d="m 6.0882155,1046.3324 c -0.7832836,-0.069 -1.5664095,-0.4603 -2.1562498,-1.0768 -0.1513952,-0.1582 -0.4640576,-0.6152 -0.5876645,-0.8589 -0.1722052,-0.3395 -0.3062162,-0.8671 -0.338679,-1.3334 -0.046634,-0.6698 0.1995525,-1.5286 0.6069074,-2.117 0.1703196,-0.246 0.7862339,-0.8663 0.8475936,-0.8536 0.025235,0.01 0.1184598,0.1456 0.2071657,0.3118 l 0.1612838,0.3024 -0.2172266,0.2159 c -0.3034587,0.3018 -0.433418,0.4775 -0.5898628,0.7976 -0.2817838,0.5766 -0.3497029,1.1373 -0.2152549,1.777 0.1230088,0.5853 0.5475973,1.2336 1.0350692,1.5804 0.4707667,0.335 0.9646334,0.5109 1.5158033,0.5399 0.3287582,0.017 0.5114796,-0.01 0.9204995,-0.1325 0.8604243,-0.2598 1.527146,-0.946 1.8056998,-1.8586 0.07873,-0.2579 0.1117704,-0.8896 0.061626,-1.1782 -0.098373,-0.5661 -0.3313864,-1.0257 -0.7309042,-1.4415 l -0.1836497,-0.1911 0.081945,-0.061 c 0.04507,-0.033 0.1184358,-0.087 0.1630358,-0.1199 0.0446,-0.033 0.1358165,-0.1018 0.2027038,-0.1539 l 0.1216129,-0.095 0.1665976,0.1687 c 0.4537844,0.4595 0.7765299,1.088 0.8981374,1.7491 0.087401,0.4751 0.03925,1.2206 -0.1064349,1.6478 -0.1029252,0.3019 -0.3425236,0.7637 -0.5236691,1.0094 -0.4131431,0.5604 -1.0769931,1.0341 -1.7179671,1.2258 -0.1218974,0.037 -0.2548765,0.078 -0.2955089,0.092 -0.059965,0.021 -0.8283064,0.096 -0.8391043,0.082 -0.0017,0 -0.1337801,-0.016 -0.2935045,-0.03 z m 11.0912615,0 c -0.497492,-0.045 -1.080289,-0.2492 -1.490376,-0.5228 -0.188785,-0.126 -0.253026,-0.1758 -0.49163,-0.3813 -0.349085,-0.3006 -0.721104,-0.8618 -0.900872,-1.3589 -0.187619,-0.5188 -0.243135,-1.2078 -0.145044,-1.8001 0.08077,-0.4878 0.414031,-1.197 0.729804,-1.5532 0.17711,-0.1998 0.420413,-0.4396 0.530719,-0.5232 l 0.109084,-0.083 -0.05365,-0.094 c -0.08811,-0.1545 -0.628286,-1.0707 -0.636659,-1.0799 -0.01068,-0.012 -0.637393,0.7921 -0.656491,0.8419 -0.0085,0.022 -0.02864,0.04 -0.04482,0.04 -0.01914,0 -0.02188,-0.1423 -0.0078,-0.4073 0.01982,-0.374 0.02789,-0.416 0.09907,-0.5158 0.04262,-0.06 0.210471,-0.2926 0.373001,-0.5175 0.162529,-0.225 0.319191,-0.4471 0.348136,-0.4935 0.02895,-0.046 0.07899,-0.1127 0.111208,-0.1474 0.044,-0.047 0.04929,-0.068 0.02125,-0.083 -0.03461,-0.019 -0.384663,-0.1534 -0.805485,-0.3099 -0.278625,-0.1035 -0.352001,-0.2678 -0.191498,-0.4287 0.05594,-0.056 0.102325,-0.058 1.123525,-0.058 l 1.065176,0 0.07253,0.073 c 0.07101,0.071 0.07253,0.083 0.07253,0.55 0,0.5222 -0.0119,0.5621 -0.167807,0.5618 -0.04586,-10e-5 -0.196408,-0.041 -0.334559,-0.092 -0.13815,-0.051 -0.270344,-0.094 -0.293764,-0.096 -0.02342,0 -0.107017,0.082 -0.185772,0.1881 -0.07875,0.1059 -0.160167,0.2131 -0.180918,0.2383 -0.0775,0.094 -0.08245,0.1212 -0.03506,0.1937 0.02659,0.041 0.07906,0.1301 0.116589,0.1986 0.09777,0.1786 0.643816,1.1291 0.65773,1.1449 0.0064,0.01 0.05131,-0.01 0.09977,-0.039 0.210071,-0.1244 0.714535,-0.2703 1.097858,-0.3177 0.798223,-0.099 1.64011,0.1178 2.351043,0.6041 0.389445,0.2664 0.922147,0.8893 1.106758,1.2941 0.026,0.057 0.0746,0.1637 0.107997,0.237 0.179173,0.3932 0.285201,1.1003 0.237576,1.5845 -0.03223,0.3277 -0.148941,0.8383 -0.231467,1.0127 -0.02932,0.062 -0.07765,0.166 -0.107394,0.2312 -0.09477,0.2076 -0.363622,0.5958 -0.559301,0.8077 -0.431337,0.4669 -0.914319,0.7739 -1.520216,0.9661 -0.407352,0.1293 -0.909841,0.178 -1.390738,0.1347 z m 0.762625,-0.7404 c 0.07627,-0.017 0.198518,-0.045 0.271656,-0.062 0.804069,-0.1876 1.530722,-0.8168 1.860685,-1.6112 0.09655,-0.2325 0.207486,-0.7776 0.207486,-1.0197 0,-0.2007 -0.104176,-0.7641 -0.173995,-0.9409 -0.188945,-0.4786 -0.517167,-0.9324 -0.858623,-1.1871 -0.05758,-0.043 -0.111406,-0.087 -0.119603,-0.098 -0.0383,-0.051 -0.476902,-0.2773 -0.663299,-0.3426 -0.60048,-0.2104 -1.187471,-0.2098 -1.802966,0 -0.113162,0.039 -0.217665,0.09 -0.232229,0.1128 -0.0186,0.029 0.0257,0.1298 0.149006,0.3372 0.09652,0.1624 0.219652,0.3751 0.273632,0.4729 0.08837,0.16 0.216434,0.3817 0.4817,0.834 0.08244,0.1406 0.097,0.1518 0.181032,0.1387 0.111741,-0.017 0.319318,0.054 0.451623,0.155 0.284984,0.2179 0.314388,0.715 0.05763,0.9745 -0.167331,0.1692 -0.422308,0.2408 -0.631819,0.1776 -0.186027,-0.056 -0.338962,-0.1657 -0.406468,-0.2913 l -0.05793,-0.1078 -1.042337,0 -1.042337,0 0,0.072 c 0,0.1901 0.11653,0.5871 0.260664,0.8881 0.14287,0.2983 0.250669,0.4454 0.534905,0.7295 0.381471,0.3813 0.873403,0.6418 1.420748,0.7523 0.239932,0.048 0.697428,0.056 0.880829,0.014 z m -1.007786,-3.0585 c -0.01539,-0.04 -0.33573,-0.5912 -0.545409,-0.938 -0.064,-0.1059 -0.200531,-0.3358 -0.303394,-0.5109 -0.102864,-0.1751 -0.197111,-0.3184 -0.209439,-0.3184 -0.01233,0 -0.09318,0.07 -0.179678,0.1555 -0.396103,0.3916 -0.637024,0.8052 -0.779428,1.3379 -0.03952,0.1478 -0.0719,0.2788 -0.07194,0.291 -4.1e-5,0.012 0.473423,0.022 1.052144,0.022 0.863215,0 1.04951,-0.01 1.037141,-0.039 z m -4.212974,1.835 c -0.142014,-0.052 -0.319187,-0.2098 -0.396039,-0.3539 l -0.06605,-0.1238 -0.0083,-2.2349 -0.0083,-2.2348 -0.499959,0.5004 -0.499959,0.5004 0.35472,0.3425 0.35472,0.3424 -0.009,0.8214 -0.009,0.8215 -0.2221,-0.2143 c -1.291823,-1.2464 -1.610027,-1.5522 -1.7919865,-1.722 -0.3304698,-0.3084 -0.4170232,-0.5846 -0.2687217,-0.8575 0.037339,-0.069 0.5244942,-0.581 1.1111502,-1.1684 0.574563,-0.5754 1.038744,-1.052 1.031514,-1.0593 -0.0072,-0.01 -0.612946,-0.01 -1.346036,-0.01 l -1.3328901,0.01 0.1476951,0.1925 c 0.081232,0.1059 0.1639714,0.2125 0.1838648,0.2369 0.094152,0.1156 0.3078801,0.4383 0.3393737,0.5123 0.048272,0.1135 0.044248,0.3025 -0.00862,0.4049 -0.056655,0.1099 -0.1717433,0.2021 -0.8869855,0.7107 -0.3250599,0.2312 -0.6287485,0.4488 -0.6748636,0.4837 -0.046115,0.035 -0.1148705,0.084 -0.1527893,0.1087 -0.037919,0.025 -0.2968586,0.2087 -0.5754207,0.4084 -0.2785624,0.1996 -0.5449188,0.3829 -0.5919033,0.4072 -0.1296596,0.067 -0.4066047,0.057 -0.531625,-0.019 -0.1439395,-0.088 -0.2318053,-0.1975 -0.2696999,-0.3365 -0.040383,-0.148 -0.016394,-0.4009 0.048469,-0.511 0.027673,-0.047 0.3002785,-0.2579 0.623136,-0.4822 1.331837,-0.9253 1.5107904,-1.0514 1.5219503,-1.072 0.00984,-0.018 -0.2742036,-0.405 -0.3737154,-0.5089 -0.016958,-0.018 -0.1561517,-0.1921 -0.3093178,-0.3876 -0.1531661,-0.1954 -0.285568,-0.362 -0.2942262,-0.3702 -0.074132,-0.07 -0.2478918,-0.3141 -0.2827187,-0.3977 -0.056187,-0.1347 -0.055042,-0.3073 0.00296,-0.4464 0.050221,-0.1205 0.8083166,-0.8932 0.9874967,-1.0066 0.057217,-0.036 0.1904475,-0.098 0.2960674,-0.1367 l 0.1920366,-0.071 2.1276649,0 c 1.980595,0 2.137877,0 2.275419,0.054 0.33746,0.1226 0.531589,0.2941 0.700968,0.6192 l 0.09691,0.1859 0,3.791 0,3.791 -0.06378,0.1185 c -0.175691,0.3263 -0.579376,0.4836 -0.922128,0.3592 z m -7.1588592,-3.4786 c -0.7150179,-0.4151 -0.9399198,-1.2791 -0.5197143,-1.9965 0.1410955,-0.2408 0.4424425,-0.4789 0.744875,-0.5885 0.1575963,-0.057 0.2526907,-0.066 0.8569383,-0.076 l 0.6796706,-0.012 0.1999925,0.2576 0.1999925,0.2577 -0.1471127,0.099 -0.1471126,0.099 -0.6311466,0 c -0.7481252,0 -0.8702038,0.025 -1.0677186,0.2162 -0.1240242,0.1202 -0.2242745,0.3509 -0.2242745,0.5161 0,0.1244 0.095886,0.369 0.1775188,0.4526 l 0.086447,0.089 -0.057959,0.098 c -0.080482,0.1367 -0.099088,0.3309 -0.049463,0.5161 0.02291,0.086 0.040278,0.1545 0.038596,0.1533 -0.00168,0 -0.064471,-0.038 -0.1395293,-0.081 z m 0.387653,-4.1857 c -0.664177,-0.1072 -1.1277673,-0.8011 -0.9638101,-1.4425 0.08913,-0.3487 0.3341013,-0.637 0.6831074,-0.8039 0.1726853,-0.083 0.2306822,-0.095 0.4410026,-0.096 0.3020971,0 0.491682,0.059 0.7232201,0.2297 0.4599875,0.3394 0.6047786,0.9471 0.3533602,1.4832 -0.2028661,0.4325 -0.7459743,0.7091 -1.2368802,0.6298 z"
       id="path1882"
       inkscape:connector-curvature="0" />
  </g>
</svg>
