<?xml version="1.0" encoding="UTF-8" standalone="no"?>
<!-- Generator: Adobe Illustrator 16.0.0, SVG Export Plug-In . SVG Version: 6.00 Build 0)  -->

<svg
   xmlns:dc="http://purl.org/dc/elements/1.1/"
   xmlns:cc="http://creativecommons.org/ns#"
   xmlns:rdf="http://www.w3.org/1999/02/22-rdf-syntax-ns#"
   xmlns:svg="http://www.w3.org/2000/svg"
   xmlns="http://www.w3.org/2000/svg"
   xmlns:sodipodi="http://sodipodi.sourceforge.net/DTD/sodipodi-0.dtd"
   xmlns:inkscape="http://www.inkscape.org/namespaces/inkscape"
   version="1.1"
   id="Layer_3"
   x="0px"
   y="0px"
   width="24"
   height="24"
   viewBox="0 0 24 24"
   enable-background="new 0 0 100 100"
   xml:space="preserve"
   inkscape:version="0.48.4 r9939"
   sodipodi:docname="16-LeftFork.svg"><metadata
   id="metadata9"><rdf:RDF><cc:Work
       rdf:about=""><dc:format>image/svg+xml</dc:format><dc:type
         rdf:resource="http://purl.org/dc/dcmitype/StillImage" /></cc:Work></rdf:RDF></metadata><defs
   id="defs7" /><sodipodi:namedview
   pagecolor="#ffffff"
   bordercolor="#666666"
   borderopacity="1"
   objecttolerance="10"
   gridtolerance="10"
   guidetolerance="10"
   inkscape:pageopacity="0"
   inkscape:pageshadow="2"
   inkscape:window-width="1680"
   inkscape:window-height="987"
   id="namedview5"
   showgrid="false"
   inkscape:zoom="26.700352"
   inkscape:cx="15.783015"
   inkscape:cy="18.601429"
   inkscape:window-x="2952"
   inkscape:window-y="-8"
   inkscape:window-maximized="1"
   inkscape:current-layer="Layer_3" />
<path
   d="m 14.558659,20.999991 -0.647837,0 -1.424873,0 -0.647838,0 c 0,-4.123652 -0.832769,-5.398502 -1.714361,-6.748671 C 9.2767009,12.954258 8.4008658,11.613021 8.4008658,8.3263155 l 0.019347,0 c -0.012933,-0.155705 -0.01912,-0.268924 -0.01912,-0.268924 l -0.0032,-1.151735 -2.1611461,0.894882 c -0.072547,0.03018 -0.1554533,0.0056 -0.2019734,-0.05938 -0.023493,-0.03259 -0.034773,-0.07073 -0.034773,-0.109356 0,-0.03911 0.011733,-0.07773 0.035693,-0.110563 l 3.264288,-4.45027 c 0.03271,-0.04466 0.08337,-0.07097 0.13726,-0.07097 0.05389,0 0.10432,0.02631 0.13726,0.07097 l 3.2642887,4.450512 c 0.04767,0.06494 0.04791,0.154981 6.91e-4,0.219918 -0.04675,0.06518 -0.129427,0.08956 -0.201744,0.05939 l -2.161377,-0.894883 0,1.604126 c 0.02833,2.4712455 0.616286,3.3786805 1.357857,4.5142415 0.470965,0.721314 0.972331,1.490425 1.364303,2.634194 0.392204,-1.143769 0.893339,-1.91288 1.364304,-2.634194 0.74157,-1.135561 1.32953,-2.042996 1.357857,-4.5142415 l 0,-1.604126 c 0,0 2.127998,0.03388 2.078467,0 l -0.0032,1.151736 c 0,0 -0.006,0.113459 -0.01912,0.268923 l 0.01935,0 c 0,3.2867065 -0.875835,4.6279435 -1.722883,5.9250035 C 15.391469,15.601497 14.558699,16.876348 14.558699,21 z"
   id="path3"
   inkscape:connector-curvature="0"
   sodipodi:nodetypes="cccccccccccsccsccccccccccccccccc" />
</svg>