<?xml version="1.0" encoding="UTF-8" standalone="no"?>
<!-- Generator: Adobe Illustrator 16.0.0, SVG Export Plug-In . SVG Version: 6.00 Build 0)  -->

<svg
   xmlns:dc="http://purl.org/dc/elements/1.1/"
   xmlns:cc="http://creativecommons.org/ns#"
   xmlns:rdf="http://www.w3.org/1999/02/22-rdf-syntax-ns#"
   xmlns:svg="http://www.w3.org/2000/svg"
   xmlns="http://www.w3.org/2000/svg"
   xmlns:sodipodi="http://sodipodi.sourceforge.net/DTD/sodipodi-0.dtd"
   xmlns:inkscape="http://www.inkscape.org/namespaces/inkscape"
   version="1.1"
   id="Layer_3"
   x="0px"
   y="0px"
   width="24"
   height="24"
   viewBox="0 0 24 24"
   enable-background="new 0 0 100 100"
   xml:space="preserve"
   inkscape:version="0.48.4 r9939"
   sodipodi:docname="18-MiddleFork.svg"><metadata
   id="metadata9"><rdf:RDF><cc:Work
       rdf:about=""><dc:format>image/svg+xml</dc:format><dc:type
         rdf:resource="http://purl.org/dc/dcmitype/StillImage" /><dc:title /></cc:Work></rdf:RDF></metadata><defs
   id="defs7" /><sodipodi:namedview
   pagecolor="#ffffff"
   bordercolor="#666666"
   borderopacity="1"
   objecttolerance="10"
   gridtolerance="10"
   guidetolerance="10"
   inkscape:pageopacity="0"
   inkscape:pageshadow="2"
   inkscape:window-width="1680"
   inkscape:window-height="987"
   id="namedview5"
   showgrid="false"
   inkscape:zoom="18.88"
   inkscape:cx="17.587594"
   inkscape:cy="15.529296"
   inkscape:window-x="2952"
   inkscape:window-y="-8"
   inkscape:window-maximized="1"
   inkscape:current-layer="Layer_3" />
<path
   d="m 11.999999,3 c -0.04474,0 -0.08638,0.02138 -0.113528,0.0625 L 9.1737505,7.159722 c -0.0099,0.0152 -0.013,0.03144 -0.01792,0.04862 -0.0049,0.0172 -0.01195,0.03756 -0.01195,0.05556 0,0.0178 0.0072,0.03164 0.01195,0.04862 0.0048,0.017 0.0082,0.03362 0.01792,0.04862 8e-4,0.0012 0.0051,-0.0012 0.006,0 0.03904,0.05702 0.102354,0.08276 0.161329,0.05556 l 1.7985225,-0.819444 -0.08365,8.833334 c -0.217911,-0.70917 -0.401589,-1.25547 -0.705096,-1.77087 C 9.7351755,12.614388 9.2510445,11.774888 9.2275265,9.5 l 0,-1.472222 c 0,0 -1.767941,0.03118 -1.72682,0 l 0,1.055556 c 0,0 0.007,0.10688 0.01793,0.25 l -0.01793,0 c 0,3.025554 0.730785,4.257388 1.434037,5.451388 C 9.6668675,16.027388 10.356832,17.204 10.356832,21 l 0.537764,0 0.489962,0 0.693118,0 0.537764,0 0.489963,0 0.537764,0 c 0,-3.796 0.695939,-4.972612 1.428062,-6.215278 0.703252,-1.194 1.428062,-2.425834 1.428062,-5.451388 l -0.01792,0 c 0.0109,-0.14312 0.01792,-0.25 0.01792,-0.25 l 0,-1.055556 c 0.04112,0.03118 -1.720845,0 -1.720845,0 l 0,1.472222 c -0.02352,2.274888 -0.513623,3.114388 -1.129304,4.159722 -0.303537,0.515452 -0.487155,1.061596 -0.705068,1.770834 l -0.07768,-8.833334 1.792546,0.819444 c 0.01506,0.007 0.03227,0.013 0.0478,0.0138 0.04447,4.22e-4 0.09159,-0.0263 0.119503,-0.06944 0.0195,-0.03 0.02987,-0.06166 0.02987,-0.09722 0,-0.036 -0.01,-0.07394 -0.02987,-0.10416 L 12.113527,3.0625 C 12.086185,3.021388 12.044741,3 11.999999,3 z"
   id="path3"
   inkscape:connector-curvature="0" />
</svg>